<svg width="220" height="48" viewBox="0 0 220 48" fill="none" xmlns="http://www.w3.org/2000/svg">
<path fill-rule="evenodd" clip-rule="evenodd" d="M3.0682 5.35458V34.9369C3.0682 35.3 2.9235 35.6483 2.66594 35.905C2.40838 36.1618 2.05906 36.3061 1.69481 36.3061H1.37338C0.614885 36.3061 0 35.6931 0 34.9369V5.35458C0.00800882 4.60412 0.620554 3.99996 1.37338 4H1.69481C2.44764 3.99996 3.06019 4.60412 3.0682 5.35458ZM19.9123 24.107C20.2023 23.8317 20.593 23.6871 20.9929 23.707L20.9199 23.7362C21.3451 23.6929 21.7679 23.8374 22.077 24.1316C22.3862 24.4258 22.5506 24.8401 22.527 25.2655V33.2765C22.527 34.1212 21.8402 34.8059 20.9929 34.8059C20.1457 34.8059 19.4588 34.1212 19.4588 33.2765V25.1636C19.4583 24.7643 19.6223 24.3824 19.9123 24.107ZM24.2973 28.3245C24.2973 27.5201 24.9514 26.868 25.7583 26.868C26.1811 26.8293 26.5998 26.9758 26.9056 27.2694C27.2113 27.563 27.3738 27.9747 27.3508 28.3973V30.1597C27.3508 31.0004 26.6673 31.6818 25.824 31.6818C24.9808 31.6818 24.2973 31.0004 24.2973 30.1597V28.3245ZM12.7533 40.4424V29.9116C12.2964 30.2578 11.7344 30.4377 11.1607 30.4214C10.6345 30.4084 10.1248 30.2356 9.69969 29.9261V40.4424C9.69969 41.283 10.3833 41.9645 11.2265 41.9645C12.0697 41.9645 12.7533 41.283 12.7533 40.4424ZM6.38635 33.903C5.86062 33.8873 5.35169 33.7148 4.9253 33.4078V43.9677C4.9253 44.8123 5.61214 45.4971 6.4594 45.4971C7.30666 45.4971 7.9935 44.8123 7.9935 43.9677V33.4806C7.5164 33.788 6.95348 33.936 6.38635 33.903ZM16.1454 26.8237C15.5951 26.82 15.0593 26.647 14.6113 26.3285V36.9175C14.6113 37.7622 15.2981 38.4469 16.1454 38.4469C16.9926 38.4469 17.6795 37.7622 17.6795 36.9175V26.3431C17.216 26.6873 16.6501 26.8667 16.0723 26.8529L16.1454 26.8237ZM6.54695 32.7812H6.22552C5.46702 32.7812 4.85213 32.1682 4.85213 31.412V8.87935C4.86014 8.12889 5.47269 7.52473 6.22552 7.52477H6.54695C7.29978 7.52473 7.91232 8.12889 7.92033 8.87935V31.4412C7.92033 32.1973 7.30545 32.8103 6.54695 32.8103V32.7812ZM11.0448 29.3142H11.3809C12.1313 29.3142 12.7396 28.7078 12.7396 27.9597V12.3747C12.7397 11.6242 12.1337 11.0135 11.3809 11.0055H11.0448C10.6819 11.0055 10.3341 11.1502 10.0788 11.4074C9.82358 11.6646 9.68215 12.0129 9.68605 12.3747V27.9597C9.68605 28.7078 10.2944 29.3142 11.0448 29.3142ZM16.2165 25.746H15.9097C15.1569 25.746 14.5443 25.1418 14.5363 24.3914V16.0017C14.5121 15.6237 14.646 15.2526 14.9062 14.9766C15.1665 14.7006 15.5298 14.5444 15.9097 14.5452H16.2312C16.9897 14.5452 17.6045 15.1582 17.6045 15.9143V24.3622C17.6084 24.7279 17.4655 25.0799 17.2075 25.3398C16.9495 25.5997 16.5979 25.746 16.2312 25.746H16.2165ZM20.7453 22.6146H21.0668H21.0814C21.8342 22.6066 22.4402 21.996 22.4401 21.2455V19.0752C22.4321 18.3248 21.8196 17.7206 21.0668 17.7207H20.7453C19.9925 17.7206 19.38 18.3248 19.372 19.0752V21.2455C19.372 22.0016 19.9868 22.6146 20.7453 22.6146Z" fill="#F8F9FA"/>
<path d="M51.6249 18.8613C53.2255 18.8613 54.5975 19.2157 55.7408 19.9245C56.884 20.6334 57.7587 21.6281 58.3646 22.9085C58.9706 24.1776 59.2735 25.6639 59.2735 27.3674V29.1338H46.2914C46.3257 31.3403 46.8745 33.021 47.9378 34.1757C49.001 35.3304 50.4988 35.9078 52.4309 35.9078C53.6199 35.9078 54.6718 35.7992 55.5864 35.5819C56.501 35.3647 57.45 35.0446 58.4332 34.6216V37.1254C57.4843 37.5484 56.5411 37.8571 55.6036 38.0514C54.6775 38.2458 53.5799 38.343 52.3109 38.343C50.5045 38.343 48.9267 37.9771 47.5776 37.2454C46.24 36.5023 45.1996 35.4162 44.4565 33.987C43.7133 32.5579 43.3417 30.8087 43.3417 28.7393C43.3417 26.7157 43.679 24.9665 44.3536 23.4916C45.0395 22.0053 45.9999 20.862 47.2347 20.0617C48.4808 19.2614 49.9443 18.8613 51.6249 18.8613ZM51.5906 21.1936C50.07 21.1936 48.8581 21.6909 47.9549 22.6856C47.0517 23.6803 46.5144 25.0694 46.3429 26.8529H56.2895C56.2781 25.7325 56.1009 24.7492 55.7579 23.9032C55.4264 23.0457 54.9176 22.3826 54.2316 21.9139C53.5456 21.4337 52.6653 21.1936 51.5906 21.1936ZM62.5148 29.8369V27.2988H71.0209V29.8369H62.5148ZM95.836 18.8613C97.9054 18.8613 99.466 19.4043 100.518 20.4905C101.57 21.5652 102.096 23.2973 102.096 25.6867V38H99.2831V25.8239C99.2831 24.3034 98.9515 23.1658 98.2884 22.4112C97.6367 21.6452 96.6649 21.2622 95.373 21.2622C93.5552 21.2622 92.2347 21.7881 91.4115 22.8399C90.5883 23.8918 90.1767 25.4409 90.1767 27.4874V38H87.3471V25.8239C87.3471 24.8064 87.1985 23.9604 86.9012 23.2858C86.6154 22.6113 86.1809 22.1082 85.5978 21.7767C85.0262 21.4337 84.3002 21.2622 83.4199 21.2622C82.1737 21.2622 81.1733 21.5194 80.4187 22.0339C79.6642 22.5484 79.1154 23.3144 78.7724 24.3319C78.4408 25.338 78.2751 26.5785 78.2751 28.0534V38H75.4283V19.2043H77.7263L78.155 21.8624H78.3094C78.6866 21.2107 79.1611 20.662 79.7328 20.2161C80.3044 19.7702 80.9446 19.4329 81.6535 19.2043C82.3623 18.9756 83.1169 18.8613 83.9172 18.8613C85.3463 18.8613 86.5411 19.13 87.5014 19.6673C88.4732 20.1932 89.1763 20.9992 89.6108 22.0854H89.7651C90.3825 20.9992 91.2286 20.1932 92.3033 19.6673C93.3779 19.13 94.5555 18.8613 95.836 18.8613ZM114.975 18.8956C117.216 18.8956 118.879 19.3986 119.965 20.4047C121.051 21.4108 121.594 23.0172 121.594 25.2237V38H119.519L118.971 35.2218H118.833C118.307 35.9078 117.759 36.4851 117.187 36.9539C116.615 37.4112 115.952 37.7599 115.198 38C114.455 38.2287 113.54 38.343 112.454 38.343C111.31 38.343 110.293 38.1429 109.401 37.7428C108.521 37.3426 107.823 36.7367 107.309 35.9249C106.806 35.1132 106.554 34.0842 106.554 32.838C106.554 30.963 107.298 29.5225 108.784 28.5164C110.27 27.5103 112.534 26.9615 115.575 26.87L118.816 26.7329V25.5838C118.816 23.9604 118.468 22.8228 117.77 22.1711C117.073 21.5194 116.089 21.1936 114.82 21.1936C113.837 21.1936 112.9 21.3365 112.008 21.6223C111.116 21.9082 110.27 22.2454 109.47 22.6341L108.595 20.4733C109.441 20.0389 110.413 19.6673 111.511 19.3586C112.608 19.0499 113.763 18.8956 114.975 18.8956ZM118.782 28.7393L115.918 28.8594C113.574 28.9508 111.922 29.3338 110.962 30.0084C110.001 30.6829 109.521 31.6376 109.521 32.8723C109.521 33.947 109.847 34.7416 110.499 35.2561C111.15 35.7706 112.014 36.0278 113.088 36.0278C114.758 36.0278 116.124 35.5648 117.187 34.6387C118.25 33.7127 118.782 32.3236 118.782 30.4714V28.7393ZM136.36 18.8613C138.589 18.8613 140.276 19.4101 141.419 20.5076C142.562 21.5938 143.134 23.343 143.134 25.7553V38H140.322V25.944C140.322 24.3777 139.961 23.2058 139.241 22.4284C138.532 21.6509 137.44 21.2622 135.966 21.2622C133.885 21.2622 132.421 21.851 131.575 23.0286C130.729 24.2062 130.306 25.9154 130.306 28.1563V38H127.46V19.2043H129.758L130.186 21.9139H130.341C130.741 21.2508 131.25 20.6963 131.867 20.2504C132.484 19.7931 133.176 19.4501 133.942 19.2214C134.708 18.9813 135.514 18.8613 136.36 18.8613ZM156.03 18.8956C158.271 18.8956 159.935 19.3986 161.021 20.4047C162.107 21.4108 162.65 23.0172 162.65 25.2237V38H160.575L160.026 35.2218H159.889C159.363 35.9078 158.814 36.4851 158.243 36.9539C157.671 37.4112 157.008 37.7599 156.253 38C155.51 38.2287 154.596 38.343 153.509 38.343C152.366 38.343 151.349 38.1429 150.457 37.7428C149.576 37.3426 148.879 36.7367 148.365 35.9249C147.862 35.1132 147.61 34.0842 147.61 32.838C147.61 30.963 148.353 29.5225 149.839 28.5164C151.326 27.5103 153.589 26.9615 156.631 26.87L159.872 26.7329V25.5838C159.872 23.9604 159.523 22.8228 158.826 22.1711C158.128 21.5194 157.145 21.1936 155.876 21.1936C154.893 21.1936 153.955 21.3365 153.064 21.6223C152.172 21.9082 151.326 22.2454 150.525 22.6341L149.651 20.4733C150.497 20.0389 151.469 19.6673 152.566 19.3586C153.664 19.0499 154.818 18.8956 156.03 18.8956ZM159.838 28.7393L156.974 28.8594C154.63 28.9508 152.978 29.3338 152.017 30.0084C151.057 30.6829 150.577 31.6376 150.577 32.8723C150.577 33.947 150.903 34.7416 151.554 35.2561C152.206 35.7706 153.069 36.0278 154.144 36.0278C155.813 36.0278 157.179 35.5648 158.243 34.6387C159.306 33.7127 159.838 32.3236 159.838 30.4714V28.7393ZM173.763 46.4375C171.293 46.4375 169.39 45.9745 168.052 45.0484C166.714 44.1338 166.046 42.8476 166.046 41.1898C166.046 40.0122 166.417 39.0061 167.16 38.1715C167.915 37.3369 168.955 36.7824 170.282 36.508C169.79 36.2793 169.367 35.9364 169.012 35.479C168.669 35.0217 168.498 34.4958 168.498 33.9013C168.498 33.2153 168.687 32.6151 169.064 32.1006C169.453 31.5747 170.041 31.0716 170.83 30.5915C169.847 30.1913 169.047 29.5168 168.429 28.5678C167.823 27.6075 167.52 26.4928 167.52 25.2237C167.52 23.8746 167.801 22.7256 168.361 21.7767C168.921 20.8163 169.733 20.0846 170.796 19.5816C171.859 19.0785 173.145 18.827 174.655 18.827C174.986 18.827 175.318 18.8441 175.649 18.8784C175.992 18.9013 176.318 18.9413 176.627 18.9985C176.935 19.0442 177.204 19.1014 177.433 19.17H183.881V21.005L180.417 21.4337C180.76 21.8796 181.046 22.4169 181.274 23.0457C181.503 23.6745 181.617 24.372 181.617 25.138C181.617 27.013 180.983 28.505 179.714 29.6139C178.445 30.7115 176.701 31.2603 174.483 31.2603C173.957 31.2603 173.42 31.2146 172.871 31.1231C172.311 31.4318 171.882 31.7748 171.585 32.1521C171.299 32.5293 171.156 32.9638 171.156 33.4554C171.156 33.8213 171.265 34.1128 171.482 34.33C171.711 34.5473 172.036 34.7073 172.459 34.8102C172.883 34.9017 173.391 34.9474 173.986 34.9474H177.296C179.342 34.9474 180.908 35.3761 181.995 36.2336C183.092 37.0911 183.641 38.343 183.641 39.9893C183.641 42.0701 182.795 43.665 181.103 44.774C179.411 45.883 176.964 46.4375 173.763 46.4375ZM173.849 44.2081C175.403 44.2081 176.69 44.048 177.707 43.7279C178.736 43.4192 179.502 42.9676 180.005 42.3731C180.52 41.79 180.777 41.0926 180.777 40.2809C180.777 39.5263 180.605 38.9546 180.262 38.5659C179.919 38.1886 179.416 37.9371 178.753 37.8114C178.09 37.6742 177.278 37.6056 176.318 37.6056H173.06C172.214 37.6056 171.476 37.737 170.847 38C170.219 38.263 169.733 38.6517 169.39 39.1662C169.058 39.6806 168.892 40.3209 168.892 41.0869C168.892 42.1044 169.321 42.8761 170.179 43.4021C171.036 43.9394 172.259 44.2081 173.849 44.2081ZM174.586 29.1852C175.947 29.1852 176.97 28.8422 177.656 28.1563C178.342 27.4703 178.685 26.4699 178.685 25.1551C178.685 23.7489 178.336 22.697 177.639 21.9996C176.941 21.2908 175.912 20.9364 174.552 20.9364C173.248 20.9364 172.242 21.3022 171.533 22.0339C170.836 22.7542 170.487 23.8117 170.487 25.2066C170.487 26.487 170.842 27.4703 171.551 28.1563C172.259 28.8422 173.271 29.1852 174.586 29.1852ZM194.822 18.8613C196.423 18.8613 197.795 19.2157 198.938 19.9245C200.081 20.6334 200.956 21.6281 201.562 22.9085C202.168 24.1776 202.471 25.6639 202.471 27.3674V29.1338H189.489C189.523 31.3403 190.072 33.021 191.135 34.1757C192.198 35.3304 193.696 35.9078 195.628 35.9078C196.817 35.9078 197.869 35.7992 198.784 35.5819C199.698 35.3647 200.647 35.0446 201.631 34.6216V37.1254C200.682 37.5484 199.738 37.8571 198.801 38.0514C197.875 38.2458 196.777 38.343 195.508 38.343C193.702 38.343 192.124 37.9771 190.775 37.2454C189.437 36.5023 188.397 35.4162 187.654 33.987C186.911 32.5579 186.539 30.8087 186.539 28.7393C186.539 26.7157 186.876 24.9665 187.551 23.4916C188.237 22.0053 189.197 20.862 190.432 20.0617C191.678 19.2614 193.142 18.8613 194.822 18.8613ZM194.788 21.1936C193.267 21.1936 192.056 21.6909 191.152 22.6856C190.249 23.6803 189.712 25.0694 189.54 26.8529H199.487C199.476 25.7325 199.298 24.7492 198.955 23.9032C198.624 23.0457 198.115 22.3826 197.429 21.9139C196.743 21.4337 195.863 21.1936 194.788 21.1936ZM215.847 18.8613C216.225 18.8613 216.619 18.8841 217.031 18.9299C217.442 18.9642 217.808 19.0156 218.128 19.0842L217.768 21.7252C217.459 21.6452 217.117 21.5823 216.739 21.5366C216.362 21.4909 216.008 21.468 215.676 21.468C214.921 21.468 214.207 21.6223 213.532 21.931C212.869 22.2283 212.286 22.6627 211.783 23.2344C211.28 23.7946 210.886 24.4748 210.6 25.2752C210.314 26.064 210.171 26.9444 210.171 27.9162V38H207.307V19.2043H209.674L209.982 22.6684H210.102C210.491 21.971 210.96 21.3365 211.509 20.7649C212.057 20.1818 212.692 19.7188 213.412 19.3758C214.144 19.0328 214.956 18.8613 215.847 18.8613Z" fill="#F8F9FA"/>
</svg>
